<svg xmlns="http://www.w3.org/2000/svg" width="48" height="48" fill="none"><defs><clipPath id="a"><path fill="#fff" fill-opacity="0" d="M0 0h48v48H0z"/></clipPath></defs><path fill="none" d="M0 0h48v48H0z"/><g fill-rule="evenodd" clip-path="url(#a)"><path fill="#1A1A1A" d="M23.91 0c13.2 0 23.91 10.7 23.91 23.91 0 13.2-10.71 23.91-23.91 23.91C10.7 47.82 0 37.11 0 23.91 0 10.7 10.7 0 23.91 0Z"/><path fill="#FFF" d="M23.19 0c-.12 9.69-.78 15.14-4.42 18.77-3.63 3.64-9.08 4.3-18.77 4.42v1.43c9.69.12 15.14.78 18.77 4.42 3.64 3.64 4.3 9.08 4.42 18.78h1.43c.12-9.7.79-15.14 4.42-18.78 3.64-3.64 9.09-4.3 18.78-4.42v-1.43c-9.69-.12-15.14-.78-18.78-4.42-3.63-3.63-4.3-9.08-4.42-18.77h-1.43Z"/></g></svg>