<svg xmlns="http://www.w3.org/2000/svg" width="48" height="48" fill="none"><defs><clipPath id="a"><path fill="#fff" fill-opacity="0" d="M0 0h48v48H0z"/></clipPath></defs><path fill="none" d="M0 0h48v48H0z"/><g clip-path="url(#a)"><path fill="#1A1A1A" fill-rule="evenodd" d="M48.02 24.01c0 13.26-10.75 24.01-24.01 24.01C10.75 48.02 0 37.27 0 24.01 0 10.75 10.75 0 24.01 0c13.26 0 24.01 10.75 24.01 24.01Z"/><path fill="#FFF" d="M33.17 14.22s2.5-.97 2.29 1.39c-.07.97-.7 4.37-1.18 8.05l-1.67 10.9s-.14 1.59-1.38 1.87c-1.25.28-3.13-.97-3.47-1.25-.28-.21-5.21-3.33-6.94-4.86-.49-.41-1.05-1.25.06-2.22l7.29-6.94c.83-.83 1.67-2.77-1.8-.41l-9.72 6.59s-1.11.69-3.19.07l-4.51-1.39s-1.67-1.04 1.18-2.08c6.94-3.26 15.47-6.59 23.04-9.72Z"/></g></svg>