<svg xmlns="http://www.w3.org/2000/svg" width="48" height="48" fill="none"><defs><clipPath id="a"><rect width="48" height="48" fill="#fff" fill-opacity="0" rx="24"/></clipPath></defs><rect width="48" height="48" fill="none" rx="24"/><g clip-path="url(#a)"><mask id="b" width="48" height="48" x="0" y="0" mask-type="alpha" maskUnits="userSpaceOnUse"><path fill="#000" fill-rule="evenodd" d="M0 0h48v48H0V0Z"/></mask><g mask="url(#b)"><path fill="#1A1A1A" d="M23.01 48h2c10.85 0 16.27 0 19.64-3.37 3.37-3.37 3.35-8.8 3.35-19.62v-2.03c0-10.82 0-16.25-3.35-19.62C41.31 0 35.86 0 25.01 0h-2C12.16 0 6.73 0 3.36 3.36 0 6.73 0 12.16 0 22.98v2.03c0 10.82 0 16.25 3.36 19.62C6.73 48 12.16 48 23.01 48Z"/><path fill="#FFF" d="M25.4 32.39c-9.33 0-14.98-6.31-15.2-16.8h4.72c.14 7.71 3.74 10.98 6.49 11.65V15.59h4.53v6.65c2.65-.28 5.43-3.31 6.37-6.65h4.45c-.71 4.11-3.74 7.13-5.88 8.38 2.14 1.01 5.59 3.65 6.92 8.42h-4.9c-1.03-3.19-3.57-5.66-6.96-6v6h-.54Z"/></g></g></svg>