<svg xmlns="http://www.w3.org/2000/svg" width="48" height="48" fill="none"><defs><clipPath id="a"><rect width="48" height="48" fill="#fff" fill-opacity="0" rx="24"/></clipPath></defs><rect width="48" height="48" fill="#1A1A1A" rx="24"/><g clip-path="url(#a)"><path fill="#FFF" d="M21.21 28.05v-8.11L28.32 24l-7.11 4.05Zm15.82-10.66c-.32-1.18-1.24-2.11-2.41-2.42-2.12-.57-10.63-.57-10.63-.57s-8.5 0-10.62.57c-1.17.31-2.09 1.24-2.41 2.42-.56 2.14-.56 6.61-.56 6.61s0 4.46.56 6.6c.32 1.18 1.24 2.11 2.41 2.42 2.12.58 10.62.58 10.62.58s8.51 0 10.63-.58c1.17-.31 2.09-1.24 2.41-2.42.56-2.14.56-6.6.56-6.6s0-4.47-.56-6.61Z"/></g></svg>