<svg xmlns="http://www.w3.org/2000/svg" width="170" height="90" fill="none"><defs><clipPath id="a"><path fill="#fff" fill-opacity="0" d="M0 0h170v90H0z"/></clipPath></defs><path d="M0 0h170v90H0z"/><g fill="#FF69DA" clip-path="url(#a)"><path d="M60.64 72.98 45.68 56.74v10.34H13.19c2.96-6.95 10.15-11.21 17.72-15.71l.96-.57c3.14-1.83 6.41-3.74 9.4-5.97h-.02c6.15-4.51 10.16-11.81 10.16-20.03C51.41 11.12 40.32 0 26.69 0 13.07 0 1.98 11.12 1.98 24.8c0 10 5.93 18.63 14.44 22.56C7.78 53.42 0 61.71 0 76.75v1.31h45.68V90l14.96-17.02ZM26.69 11.13c7.51 0 13.62 6.14 13.62 13.67 0 7.54-6.11 13.67-13.62 13.67-7.5 0-13.61-6.13-13.61-13.67 0-7.53 6.11-13.67 13.61-13.67Zm55.28 37.13c3.19 0 3.77 1.78 3.77 3.11 0 1.41-.82 2.15-2.01 2.55v.02c.95.19 2.61.89 2.61 3.12 0 2.93-2.52 3.42-4.69 3.42h-5.81V48.26h6.13Zm-3.25 4.82h2.65c1.17 0 1.44-.79 1.44-1.26 0-.5-.28-1.18-1.56-1.18h-2.53v2.44Zm0 5.03h2.99c.5 0 1.59-.26 1.59-1.38 0-1.12-.91-1.4-1.96-1.4h-2.62v2.78Zm9.17-7.47v-2.38h10.27v2.38h-3.69v9.84h-2.88v-9.84h-3.7ZM99 54.37c0-2.84 1.36-6.46 6.18-6.46 4.21 0 6.18 2.76 6.18 6.46s-1.97 6.46-6.18 6.46c-4.82 0-6.18-3.61-6.18-6.46Zm9.25 0c0-1.12-.13-4.08-3.07-4.08-1.59 0-3.05.85-3.05 4.08s1.46 4.09 3.05 4.09c2.94 0 3.07-3.06 3.07-4.09Zm11.34-6.11c2.46 0 4.61.93 4.61 3.95 0 3.84-3.2 4.06-4.68 4.06h-2.74v4.21h-2.89V48.26h5.7Zm-2.81 5.64h2.25c1.38 0 2.06-.49 2.06-1.67 0-1.66-1.41-1.59-2.06-1.59h-2.25v3.26Zm9.08.47c0-2.84 1.36-6.46 6.18-6.46 4.21 0 6.19 2.76 6.19 6.46s-1.98 6.46-6.19 6.46c-4.82 0-6.18-3.61-6.18-6.46Zm9.26 0c0-1.12-.14-4.08-3.08-4.08-1.59 0-3.05.85-3.05 4.08s1.46 4.09 3.05 4.09c2.94 0 3.08-3.06 3.08-4.09Zm14.49-1.26v2.26h-5.97v2.74h6.95v2.37h-9.83V48.26h9.66v2.38h-6.78v2.48h5.97v-.01ZM88.17 75.56l-.14 5.13h-2.55v-2.75h-8.26v2.75h-2.55l-.14-5.13h1.2c1.42-2.11 1.86-4.41 1.86-7.02v-2.82h8.85v9.84h1.73Zm-7.88-7.47-.02 1.45c-.05 2.72-.38 4.49-1.41 6.02h4.7v-7.47h-3.27Zm12.75 2.06h3.04c3.56 0 4.38 2.15 4.38 4 0 2.65-1.58 3.79-4.4 3.79h-5.9V65.72h2.88v4.43Zm0 5.41h2.45c1.17 0 1.87-.4 1.87-1.52 0-1.18-.77-1.51-1.96-1.51h-2.36v3.03Zm11.23-9.84v12.22h-2.88V65.72h2.88Zm5.45 12.22h-3.63l4.29-6.36-3.91-5.86h3.43l2.34 4.01 2.35-4.01h3.43l-3.93 5.86 4.31 6.36h-3.63l-2.53-4.21-2.52 4.21Zm17.19-12.22 4.59 12.22h-3.06l-.78-2.29h-4.44l-.77 2.29h-3.03l4.57-12.22h2.92Zm.12 7.85-1.57-4.66-1.61 4.66h3.18Zm8.93 4.37h-2.89V65.72h2.89v4.59h4.43v-4.59h2.88v12.22h-2.88v-5.26h-4.43v5.26Zm18.19-12.22h2.89v12.22h-2.89v-7.98l-4.87 7.98h-2.88V65.72h2.88v7.89l4.87-7.89Zm14.87 4.85v2.25h-5.98v2.74H170v2.38h-9.84V65.72h9.66v2.37h-6.78v2.48h5.98Z"/></g></svg>