<svg xmlns="http://www.w3.org/2000/svg" width="998" height="846" fill="none"><path fill="#FF81E0" fill-rule="evenodd" d="M489.58 215.14c-1.91 10.07 8.79 40.79 122.35 34.44 6.53 7.06 13.03 29.98-13.24 65.16-5.01 6.71-11.02 14.4-17.5 22.67-35.94 45.97-86.2 110.22-59.3 127.8 19.97 13.05 86.25-67.15 107.72-97.46-19.74 35.12-74.3 142.33-48.93 146.2 25 3.82 85.63-94.13 112.82-143.58-17.3 42.92-40.04 130.87-34.22 147.82 1.55 4.51 24.37 17.49 55.09-50.33 30.72-67.82 36.33-97.49 36.33-97.49 2.83 8.13 7.95 29.41 0 47.16-10.91 24.37-27.55 80.12-13.24 76.82 16.1-3.71 61.44-51.92 71.51-123.98 2.74-19.66 3.83-37.31 4.84-53.59 2.67-43.36 4.75-76.94 35.94-112.77 34.32-39.42 112.46-123.09 147.25-160L844.5-.5s-90.8 110.91-120.28 122.92c-29.49 12.01-56.58 44.99-99.58 58.81-52.75 16.95-131.97 17.57-135.06 33.91Z"/><path fill="#1A1A1A" fill-rule="evenodd" d="M51.9 783.73s309.43-233.17 412.86-338.45c22.59-22.99-3.96-67.6 56.47-60.2l-5.33 35 9.49-35c19.58-4.67 64.97 8.13 60.94 42.24l-22.38 19.02 24.6-16.8c15.15 3.44 42.35 23.52 27.52 62.09l-16.86 2.76 17.41 1.26c8.13 25.85-11.5 66.51-58.82 56.96-17.55 2.39-64.69 20.59-112.81 74.23-48.13 53.64-155.53 149.65-187.73 186.81L51.9 783.73Z"/></svg>