<svg xmlns="http://www.w3.org/2000/svg" width="775" height="772" fill="none"><path fill="#F8D3EF" fill-rule="evenodd" d="M522.36 141.25c9.25 3.55 29.08 27.96-33.84 118.12 2.49 8.96 18.04 25.95 60.32 22.22 8.06-.71 17.43-1.75 27.53-2.87 56.06-6.21 134.45-14.89 135.23 16.16.58 23.06-99.05 36.82-134.89 39.07 38.92 1.62 154.81 11.22 145.1 34.05-9.56 22.5-120.91 22.59-175.4 19.83 44.09 7.57 127.97 33.56 138.95 46.96 2.92 3.57 2 28.92-69.38 19.73-71.38-9.19-98.63-19.65-98.63-19.65 5.24 6.45 20.14 21.48 38.78 23.96 25.58 3.41 79.89 18.05 69.9 28.14-11.23 11.36-73.91 24.15-138.28-4.18-17.57-7.74-32.64-15.81-46.54-23.25-37.02-19.83-65.69-35.19-111-27.74-49.86 8.2-267.69 41.14-315.71 50.99l75.6-155.51s211.93-22.02 236.79-40.17c24.86-18.15 65.75-23.67 98.96-52.01 40.75-34.77 81.5-99.6 96.51-93.85Z"/><path fill="#F7D" fill-rule="evenodd" d="M456.4 199.86c-62.29 4.75-114.98 38.99-79.53 142.64 17.56 51.35 138 47.55 157.14 2.85 19.43-45.39 25.87-145.49-77.61-145.49Z"/><mask id="a" width="180.088196" height="180.088257" x="365.435364" y="199.860352" mask-type="alpha" maskUnits="userSpaceOnUse"><path fill="#FFE700" fill-rule="evenodd" d="M456.4 199.86c-62.29 4.75-114.98 38.99-79.53 142.64 17.56 51.35 138 47.55 157.14 2.85 19.43-45.39 25.87-145.49-77.61-145.49Z"/></mask><g mask="url(#a)"><path fill="#FFE700" fill-rule="evenodd" d="M513.36 150.51c-3.57-15.68-25.92-15.68-29.49 0-2.31 10.15-13.95 14.99-22.77 9.46l-.3-.19c-13.57-8.5-29.25 7.28-20.66 20.79 5.59 8.78.77 20.43-9.38 22.71-15.63 3.5-15.63 25.79 0 29.29 10.15 2.28 14.97 13.93 9.38 22.71v.01c-8.6 13.5 7.08 29.29 20.65 20.79l.32-.21c8.82-5.52 20.45-.69 22.76 9.45v.02c3.57 15.68 25.92 15.68 29.49 0 2.31-10.16 13.95-14.99 22.77-9.46l.3.19c13.57 8.5 29.25-7.29 20.65-20.79-5.58-8.78-.76-20.43 9.38-22.71 15.64-3.5 15.64-25.79 0-29.29-10.14-2.28-14.96-13.93-9.38-22.71l.01-.01c8.6-13.5-7.08-29.29-20.65-20.79l-.33.21c-8.81 5.52-20.44.69-22.75-9.45v-.02Z"/></g><g mask="url(#a)"><mask id="b" width="144.154266" height="149.073242" x="415.259277" y="306.367432" mask-type="alpha" maskUnits="userSpaceOnUse"><path fill="#FF69DA" fill-rule="evenodd" d="M486.895 362.386c1.439-8.427 13.441-12.731 8.883-28.168-3.312-11.217-14.622-15.156-26.151-11.803-11.528 3.353-18.908 12.727-15.596 23.945 5.157 17.467 17.82 12.393 23.614 18.716 3.038 3.315 3.932 6.941 4.606 9.671.135.546.261 1.057.393 1.522-.114-.002-.23-.004-.348-.006-2.832-.041-6.593-.096-10.527-2.293-7.505-4.192-5.352-17.576-23.659-18.661-11.757-.697-19.313 8.538-20.029 20.44-.523 8.694 2.749 16.406 9.133 20.203-2.648 6.418-1.096 14.156 3.793 20.814 7.075 9.636 18.458 13.363 27.977 6.479 14.821-10.72 5.73-20.834 9.769-28.383 2.117-3.958 5.253-6.018 7.615-7.57.098-.065.195-.128.29-.191.141.462.313.96.497 1.492.917 2.659 2.136 6.191 1.382 10.609-1.439 8.427-14.859 10.938-9.702 28.405 3.312 11.218 14.623 15.156 26.151 11.803 11.529-3.353 18.909-12.727 15.597-23.945-4.558-15.436-17.002-12.63-22.796-18.954-2.924-3.191-4.033-6.622-4.886-9.259-.225-.696-.432-1.338-.65-1.905l.068.001c2.832.042 6.593.097 10.527 2.294 7.505 4.192 5.352 17.576 23.659 18.661 11.757.696 19.313-8.538 20.029-20.44.517-8.594-2.674-16.228-8.913-20.07 2.501-6.366.926-13.986-3.898-20.555-7.075-9.636-18.458-13.362-27.976-6.478-14.822 10.72-5.731 20.834-9.769 28.383-2.118 3.957-5.254 6.018-7.615 7.57l-.057.037c-.124-.594-.299-1.245-.488-1.953-.717-2.676-1.649-6.158-.923-10.411Zm20.633 12.871c-1.983-.477-3.919-.729-5.873-.382-4.279.759-7.266 2.806-9.562 4.38-.117.08-.233.159-.346.237.392.006.807.02 1.242.035 2.789.095 6.417.218 10.431-1.435 1.564-.644 2.88-1.647 4.108-2.835Zm-23.965 6.865c-.588.008-1.236-.014-1.937-.037-2.789-.095-6.417-.219-10.432 1.435-1.689.695-3.09 1.811-4.403 3.126 2.127.541 4.196.855 6.285.484 4.279-.759 7.265-2.806 9.562-4.38.321-.22.629-.431.925-.628Z" clip-rule="evenodd"/></mask><g mask="url(#b)"><path fill="#FFE700" fill-rule="evenodd" d="M456.4 199.86c-62.29 4.75-114.98 38.99-79.53 142.64 17.56 51.35 138 47.55 157.14 2.85 19.43-45.39 25.87-145.49-77.61-145.49Z"/></g></g><g mask="url(#a)"><path fill="#FFE700" fill-rule="evenodd" d="M404.629 284.228c0-2.479 2.01-4.489 4.489-4.489 2.48 0 4.489 2.01 4.489 4.489 0 .793 1.076 1.033 1.413.316l.353-.751c1.053-2.241 3.728-3.215 5.975-2.175 2.247 1.04 3.215 3.7 2.162 5.941l-.624 1.328 3.126-1.447c2.236-1.035 4.898-.066 5.946 2.164s.084 4.877-2.152 5.912l-.647.299c-.556.258-.372 1.091.241 1.091 2.46 0 4.455 1.995 4.455 4.455 0 2.461-1.995 4.456-4.455 4.456-.806 0-1.048 1.096-.316 1.434l.725.336c2.236 1.035 3.199 3.681 2.151 5.912-1.048 2.23-3.71 3.199-5.946 2.164l-3.2-1.481.696 1.481c1.053 2.241.085 4.901-2.162 5.941-2.247 1.039-4.922.066-5.975-2.175l-.353-.75c-.337-.717-1.413-.477-1.413.315 0 2.479-2.009 4.489-4.489 4.489-2.479 0-4.489-2.01-4.489-4.489 0-.6-.814-.781-1.069-.239l-.315.671c-1.053 2.241-3.728 3.214-5.975 2.174-2.247-1.04-3.215-3.699-2.162-5.94l.207-.441-.959.444c-2.236 1.035-4.899.066-5.946-2.164-1.048-2.231-.085-4.877 2.151-5.912l.725-.336c.732-.338.49-1.434-.316-1.434-2.46 0-4.455-1.995-4.455-4.456 0-2.46 1.995-4.455 4.455-4.455.613 0 .797-.833.24-1.091l-.646-.299c-2.236-1.035-3.2-3.682-2.152-5.912s3.71-3.199 5.946-2.164l.885.409-.135-.286c-1.053-2.241-.085-4.901 2.162-5.941s4.922-.066 5.975 2.175l.315.67c.255.543 1.069.361 1.069-.239Z" clip-rule="evenodd"/></g></svg>